<?xml version="1.0" standalone="no"?>
<!DOCTYPE svg PUBLIC "-//W3C//DTD SVG 20010904//EN"
 "http://www.w3.org/TR/2001/REC-SVG-20010904/DTD/svg10.dtd">
<svg version="1.0" xmlns="http://www.w3.org/2000/svg"
 width="96.000000pt" height="96.000000pt" viewBox="0 0 96.000000 96.000000"
 preserveAspectRatio="xMidYMid meet">
<metadata>
Created by potrace 1.14, written by Peter Selinger 2001-2017
</metadata>
<g transform="translate(0.000000,96.000000) scale(0.100000,-0.100000)"
fill="#000000" stroke="none">
<path d="M152 820 c-18 -11 -37 -32 -42 -46 -13 -33 -13 -555 0 -588 5 -14 24
-35 42 -46 31 -19 51 -20 326 -20 322 0 337 2 367 60 12 24 15 78 15 307 l0
279 -29 34 -29 35 -308 3 c-295 2 -310 1 -342 -18z m628 -374 c0 -118 -3 -221
-6 -230 -5 -14 -40 -16 -284 -16 -153 0 -285 3 -294 6 -14 5 -16 35 -16 230
l0 224 300 0 300 0 0 -214z"/>
<path d="M485 583 c-16 -44 -64 -289 -59 -305 9 -30 41 -22 52 15 23 75 64
278 58 292 -7 21 -42 19 -51 -2z"/>
<path d="M287 491 c-26 -27 -47 -54 -47 -60 0 -14 67 -89 91 -101 40 -22 68
24 32 52 -45 33 -47 45 -14 84 35 39 37 67 5 72 -13 2 -35 -14 -67 -47z"/>
<path d="M591 531 c-18 -12 -6 -46 25 -70 31 -24 30 -31 -6 -66 -33 -32 -37
-68 -8 -73 20 -4 104 70 113 99 5 14 -6 33 -42 69 -50 51 -58 56 -82 41z"/>
</g>
</svg>
