<?xml version="1.0" encoding="UTF-8" standalone="no"?>
<svg
   width="24"
   height="24"
   viewBox="0 0 24 24"
   fill="none"
   stroke="#fff"
   stroke-width="2"
   stroke-linecap="round"
   stroke-linejoin="round"
   class="lucide lucide-car"
   version="1.1"
   id="svg2"
   sodipodi:docname="car-shadow.svg"
   inkscape:version="1.3.2 (091e20ef0f, 2023-11-25, custom)"
   xmlns:inkscape="http://www.inkscape.org/namespaces/inkscape"
   xmlns:sodipodi="http://sodipodi.sourceforge.net/DTD/sodipodi-0.dtd"
   xmlns="http://www.w3.org/2000/svg"
   xmlns:svg="http://www.w3.org/2000/svg">
  <defs
     id="defs2">
    <filter
       style="color-interpolation-filters:sRGB;"
       inkscape:label="Blur"
       id="filter207"
       x="-0.4325"
       y="-0.4325"
       width="1.865"
       height="1.865">
      <feGaussianBlur
         stdDeviation="0.2 0.2"
         result="blur"
         id="feGaussianBlur207" />
    </filter>
    <filter
       style="color-interpolation-filters:sRGB;"
       inkscape:label="Blur"
       id="filter208"
       x="-0.4325"
       y="-0.4325"
       width="1.865"
       height="1.865">
      <feGaussianBlur
         stdDeviation="0.2 0.2"
         result="blur"
         id="feGaussianBlur208" />
    </filter>
    <filter
       style="color-interpolation-filters:sRGB;"
       inkscape:label="Blur"
       id="filter209"
       x="-0.0865"
       y="-0.173"
       width="1.173"
       height="1.346">
      <feGaussianBlur
         stdDeviation="0.2 0.2"
         result="blur"
         id="feGaussianBlur209" />
    </filter>
  </defs>
  <sodipodi:namedview
     id="namedview2"
     pagecolor="#505050"
     bordercolor="#eeeeee"
     borderopacity="1"
     inkscape:showpageshadow="0"
     inkscape:pageopacity="0"
     inkscape:pagecheckerboard="0"
     inkscape:deskcolor="#d1d1d1"
     inkscape:zoom="49.75"
     inkscape:cx="12"
     inkscape:cy="12"
     inkscape:window-width="2548"
     inkscape:window-height="1390"
     inkscape:window-x="4"
     inkscape:window-y="42"
     inkscape:window-maximized="0"
     inkscape:current-layer="svg2" />
  <path
     d="M19 17h2c.6 0 1-.4 1-1v-3c0-.9-.7-1.7-1.5-1.9C18.7 10.6 16 10 16 10s-1.3-1.4-2.2-2.3c-.5-.4-1.1-.7-1.8-.7H5c-.6 0-1.1.4-1.4.9l-1.4 2.9A3.7 3.7 0 0 0 2 12v4c0 .6.4 1 1 1h2"
     id="path1"
     style="stroke:#000000;stroke-opacity:1;stroke-width:2.5;stroke-dasharray:none;filter:url(#filter209)" />
  <circle
     cx="7"
     cy="17"
     r="2"
     id="circle1"
     style="stroke:#000000;stroke-opacity:1;stroke-width:2.5;stroke-dasharray:none;filter:url(#filter208)" />
  <path
     d="M9 17h6"
     id="path2"
     style="stroke:#000000;stroke-opacity:1;stroke-width:2.5;stroke-dasharray:none" />
  <circle
     cx="17"
     cy="17"
     r="2"
     id="circle2"
     style="stroke:#000000;stroke-opacity:1;stroke-width:2.5;stroke-dasharray:none;filter:url(#filter207)" />
</svg>
